HIERARCHY
ROOT Hips
{
	OFFSET 0.00000 0.00000 0.00000
	CHANNELS 6 Xposition Yposition Zposition Zrotation Yrotation Xrotation 
	JOINT LHipJoint
	{
		OFFSET 0 0 0
		CHANNELS 3 Zrotation Yrotation Xrotation
		JOINT LeftUpLeg
		{
			OFFSET 1.36337 -1.57426 1.11036
			CHANNELS 3 Zrotation Yrotation Xrotation
			JOINT LeftLeg
			{
				OFFSET 2.38468 -6.55187 0.00000
				CHANNELS 3 Zrotation Yrotation Xrotation
				JOINT LeftFoot
				{
					OFFSET 2.37166 -6.51609 0.00000
					CHANNELS 3 Zrotation Yrotation Xrotation
					JOINT LeftToeBase
					{
						OFFSET 0.29078 -0.79891 2.01393
						CHANNELS 3 Zrotation Yrotation Xrotation
						End Site
						{
							OFFSET 0.00000 -0.00000 1.07924
						}
					}
				}
			}
		}
	}
	JOINT RHipJoint
	{
		OFFSET 0 0 0
		CHANNELS 3 Zrotation Yrotation Xrotation
		JOINT RightUpLeg
		{
			OFFSET -1.36349 -1.57426 1.11036
			CHANNELS 3 Zrotation Yrotation Xrotation
			JOINT RightLeg
			{
				OFFSET -2.29562 -6.30717 0.00000
				CHANNELS 3 Zrotation Yrotation Xrotation
				JOINT RightFoot
				{
					OFFSET -2.40985 -6.62100 0.00000
					CHANNELS 3 Zrotation Yrotation Xrotation
					JOINT RightToeBase
					{
						OFFSET -0.23197 -0.63733 1.92232
						CHANNELS 3 Zrotation Yrotation Xrotation
						End Site
						{
							OFFSET -0.00000 -0.00000 1.01562
						}
					}
				}
			}
		}
	}
	JOINT LowerBack
	{
		OFFSET 0 0 0
		CHANNELS 3 Zrotation Yrotation Xrotation
		JOINT Spine
		{
			OFFSET -0.08565 2.03602 -0.24562
			CHANNELS 3 Zrotation Yrotation Xrotation
			JOINT Spine1
			{
				OFFSET -0.00036 2.05693 0.00216
				CHANNELS 3 Zrotation Yrotation Xrotation
				JOINT Neck
				{
					OFFSET 0 0 0
					CHANNELS 3 Zrotation Yrotation Xrotation
					JOINT Neck1
					{
						OFFSET -0.03664 1.69515 0.31789
						CHANNELS 3 Zrotation Yrotation Xrotation
						JOINT Head
						{
							OFFSET 0.00932 1.70181 -0.46013
							CHANNELS 3 Zrotation Yrotation Xrotation
							End Site
							{
								OFFSET 0.01243 1.77620 -0.19377
							}
						}
					}
				}
				JOINT LeftShoulder
				{
					OFFSET 0 0 0
					CHANNELS 3 Zrotation Yrotation Xrotation
					JOINT LeftArm
					{
						OFFSET 3.74344 0.81315 -0.36647
						CHANNELS 3 Zrotation Yrotation Xrotation
						JOINT LeftForeArm
						{
							OFFSET 4.97185 -0.00000 -0.00000
							CHANNELS 3 Zrotation Yrotation Xrotation
							JOINT LeftHand
							{
								OFFSET 3.35811 -0.00000 0.00000
								CHANNELS 3 Zrotation Yrotation Xrotation
								JOINT LeftFingerBase
								{
									OFFSET 0 0 0
									CHANNELS 3 Zrotation Yrotation Xrotation
									JOINT LeftHandIndex1
									{
										OFFSET 0.62278 -0.00000 0.00000
										CHANNELS 3 Zrotation Yrotation Xrotation
										End Site
										{
											OFFSET 0.50210 -0.00000 0.00000
										}
									}
								}
								JOINT LThumb
								{
									OFFSET 0 0 0
									CHANNELS 3 Zrotation Yrotation Xrotation
									End Site
									{
										OFFSET 0.50976 -0.00000 0.50976
									}
								}
							}
						}
					}
				}
				JOINT RightShoulder
				{
					OFFSET 0 0 0
					CHANNELS 3 Zrotation Yrotation Xrotation
					JOINT RightArm
					{
						OFFSET -3.75385 0.50666 -0.06525
						CHANNELS 3 Zrotation Yrotation Xrotation
						JOINT RightForeArm
						{
							OFFSET -4.96493 -0.00000 -0.00000
							CHANNELS 3 Zrotation Yrotation Xrotation
							JOINT RightHand
							{
								OFFSET -3.34929 -0.00000 0.00000
								CHANNELS 3 Zrotation Yrotation Xrotation
								JOINT RightFingerBase
								{
									OFFSET 0 0 0
									CHANNELS 3 Zrotation Yrotation Xrotation
									JOINT RightHandIndex1
									{
										OFFSET -0.63804 -0.00000 0.00000
										CHANNELS 3 Zrotation Yrotation Xrotation
										End Site
										{
											OFFSET -0.51441 -0.00000 0.00000
										}
									}
								}
								JOINT RThumb
								{
									OFFSET 0 0 0
									CHANNELS 3 Zrotation Yrotation Xrotation
									End Site
									{
										OFFSET -0.52226 -0.00000 0.52226
									}
								}
							}
						}
					}
				}
			}
		}
	}
}
MOTION
Frames: 5
Frame Time: .0083333
-13.1881 13.1546 2.3401 176.3360 35.8259 -164.4210 0.0000 0.0000 0.0000 6.5283 -20.7141 -78.0162 14.7174 19.3174 74.3839 -0.4637 -16.2491 -5.8069 0.2653 -3.3133 -9.1523 0.0000 0.0000 0.0000 15.2424 -43.3249 -55.3850 -20.8530 -19.9825 92.4947 -2.9917 0.7360 -32.5980 -3.7820 11.8645 -35.2544 -2.3563 4.8974 21.5171 -10.7202 6.3944 3.4734 -12.5212 3.6257 -7.0798 23.9399 21.1515 -1.6225 -19.5747 34.0792 15.8184 -4.6013 15.9766 13.0638 -0.0000 0.0000 0.0000 -52.5092 -26.0209 73.4086 84.6896 -59.8932 -55.4027 -0.0000 0.0000 -9.2971 24.6974 -16.9675 -7.6440 -7.1250 0.0000 -0.0000 -2.0963 11.4257 1.6406 -0.0000 0.0000 0.0000 -31.4819 36.9060 -47.3395 -145.5754 44.3968 -105.5907 0.0000 -0.0000 -67.2020 -9.3814 -16.5834 2.6997 7.1250 -0.0000 -0.0000 17.2804 -46.0277 -0.4517
-13.1911 13.1412 2.3312 176.3170 35.9931 -164.3740 0.0000 0.0000 0.0000 6.5473 -20.6695 -78.1660 14.7806 19.3339 74.5749 -0.4377 -16.1333 -6.0498 0.3045 -3.5478 -9.8079 0.0000 0.0000 0.0000 15.1595 -43.3471 -55.5120 -20.9016 -19.9805 92.6370 -2.9967 0.8514 -32.5933 -3.8242 11.9227 -35.4590 -2.2765 4.9120 21.3942 -10.7358 6.4305 3.4437 -12.5792 3.6404 -7.0312 23.8425 21.1007 -1.5502 -19.5790 34.0030 15.7683 -4.6284 15.9508 12.9966 -0.0000 0.0000 0.0000 -52.6298 -26.0331 73.3517 84.1824 -59.8717 -54.9640 -0.0000 0.0000 -9.1441 24.4078 -17.3327 -7.6992 -7.1250 0.0000 -0.0000 -2.3184 11.0742 1.8315 -0.0000 0.0000 0.0000 -31.4171 36.7825 -47.2706 -145.5039 44.4490 -105.5406 0.0000 -0.0000 -67.1414 -9.4670 -16.3757 2.6917 7.1250 -0.0000 -0.0000 17.1298 -45.8385 -0.3652
-13.1948 13.1236 2.3237 176.1080 36.1771 -164.4290 0.0000 0.0000 0.0000 6.4228 -20.6341 -78.3600 14.8461 19.3508 74.7726 -0.4201 -16.0981 -6.2646 0.3376 -3.7339 -10.3293 0.0000 0.0000 0.0000 14.8818 -43.4149 -55.6770 -20.9698 -19.9774 92.8366 -2.9990 1.0688 -32.5459 -3.8297 11.9303 -35.4857 -2.4237 4.9289 21.2519 -10.7630 6.4283 3.4278 -12.5032 3.6444 -6.9862 23.7517 21.0990 -1.1664 -19.6930 33.9764 15.3960 -4.7147 15.9723 12.7858 0.0000 0.0000 0.0000 -52.6716 -25.9517 73.3721 84.3394 -59.8786 -55.0998 -0.0000 0.0000 -9.2540 24.4902 -16.6330 -7.4288 -7.1250 0.0000 -0.0000 -2.2058 11.8164 1.7087 0.0000 0.0000 0.0000 -31.4063 36.7150 -47.3138 -145.3830 44.5367 -105.4559 0.0000 -0.0000 -67.2065 -9.1833 -16.4322 2.6184 7.1250 -0.0000 -0.0000 17.4047 -45.8578 -0.3800
-13.1967 13.1213 2.3205 175.9270 36.3075 -164.5290 0.0000 0.0000 0.0000 6.2449 -20.5920 -78.3734 14.8800 19.3595 74.8749 -0.4145 -16.1519 -6.4050 0.3715 -3.9152 -10.8381 0.0000 0.0000 0.0000 14.6146 -43.3066 -55.6443 -20.9983 -19.9761 92.9199 -3.0098 1.2501 -32.5563 -3.8157 11.9111 -35.4182 -2.6049 4.9370 21.1668 -10.7597 6.4068 3.4344 -12.3724 3.6396 -6.9572 23.8237 21.0918 -0.9127 -19.8446 33.9826 15.1859 -4.7983 15.9965 12.7103 0.0000 -0.0000 0.0000 -52.7055 -25.8712 73.2490 84.1529 -59.8704 -54.9384 -0.0000 0.0000 -9.1932 24.3658 -16.8332 -7.4719 -7.1250 0.0000 -0.0000 -2.3046 11.6182 1.7948 0.0000 -0.0000 0.0000 -31.3214 36.7414 -47.3270 -145.2963 44.5994 -105.3951 0.0000 -0.0000 -67.4073 -9.0770 -16.4840 2.5956 7.1250 -0.0000 -0.0000 17.5186 -45.8945 -0.3990
-13.2002 13.1237 2.3169 175.9000 36.3917 -164.5990 0.0000 0.0000 0.0000 6.1576 -20.5466 -78.2878 14.8954 19.3635 74.9215 -0.4107 -16.0505 -6.3444 0.3238 -3.6575 -10.1151 0.0000 0.0000 0.0000 14.4120 -43.1543 -55.4475 -20.9856 -19.9767 92.8829 -2.9796 1.3110 -32.3722 -3.7721 11.8509 -35.2064 -2.6150 4.9245 21.1962 -10.7239 6.3773 3.4206 -12.3225 3.6198 -6.9995 24.0140 21.0583 -0.8158 -20.0145 34.0205 15.2069 -4.8671 16.0204 12.7874 0.0000 -0.0000 0.0000 -52.8338 -25.7513 73.2883 84.1138 -59.8687 -54.9046 -0.0000 0.0000 -9.3744 24.6324 -16.5325 -7.4337 -7.1250 0.0000 -0.0000 -2.1033 11.9049 1.6253 0.0000 -0.0000 0.0000 -31.1788 36.7704 -47.2458 -145.2440 44.6371 -105.3584 0.0000 -0.0000 -67.5830 -9.6086 -16.8648 2.8118 7.1250 -0.0000 -0.0000 17.1763 -46.3269 -0.5793
